<svg version="1.1" xmlns="http://www.w3.org/2000/svg" viewBox="0 0 1019.275390625 461.491885544237">
  <!-- svg-source:excalidraw -->
  <defs>
    <style>
      @font-face {
        font-family: "Virgil";
        src: url("https://excalidraw.com/FG_Virgil.woff2");
      }
      @font-face {
        font-family: "Cascadia";
        src: url("https://excalidraw.com/Cascadia.woff2");
      }
    </style>
  </defs>
  <rect x="0" y="0" width="1019.275390625" height="461.491885544237" fill="#ffffff"></rect><g transform="translate(870.6748046875 305.4970703125) rotate(0 58.908203125 58.908203125)"><path d="M0 0 C0 0, 0 0, 0 0 M0 0 C0 0, 0 0, 0 0 M-0.5318029865296433 6.1181755148369 C1.821452972362589 5.279316300389652, 2.8506209722346574 3.4552240434729997, 5.3857081848704285 0.8591463196871095 M-0.03586763922589514 6.213325214062921 C0.9363185166867283 5.334826591818889, 1.940720559936384 3.62712997668921, 4.6975349291735355 0.447920574977737 M1.134161382270943 12.08426219415623 C1.526923951923432 7.888725963938592, 5.057432936946947 6.488890712848038, 9.397752755832803 -1.3781122972175717 M0.8085917339753019 11.711769315272152 C2.543154805078205 7.754204611992369, 6.793912906111688 5.064146252553345, 11.417276906174553 -0.12785115064235908 M-0.5013376893988113 20.08871191078859 C4.717794398165502 9.833077303625448, 14.202821764058152 5.840609487290683, 13.782959771811445 0.28911044699372557 M-0.5870682951575379 17.786641331297034 C2.1592255966088336 15.636294098782638, 5.135774430303046 12.15350046266138, 16.13116656663217 0.5793032382545045 M2.077338857781074 25.184361137165784 C8.077571311304915 16.96053654063474, 12.247347385745975 9.550507807683037, 22.382025894055033 0.569153725558472 M0.04048462698229294 24.193786249212085 C6.214730953081408 17.904598504952876, 13.29435547450187 9.188158956592575, 21.188509050102795 0.3175793070509556 M0.45523858727415956 31.962341785196415 C6.079388793888886 20.484274338182693, 15.830926308896368 12.3382862991756, 26.305644788455577 1.7161597734329046 M-0.8355203736061796 29.736541130345515 C8.892717927711926 20.564033557813893, 15.731044216427765 10.699747422030292, 25.314101472173245 0.9287395089876593 M-1.8400584758352956 38.857946716063964 C12.293012811509762 25.58512752338114, 24.22385363870043 8.786671863855581, 30.258939884087837 -2.0170225034222717 M-0.41421835972932186 37.58619126752143 C8.108963218100962 26.333323085783583, 17.953281393210407 17.086284814893002, 32.46975061152766 0.02760174416594552 M-0.11886293146302762 44.4881094159519 C11.379524208020527 31.442051955853437, 21.818045697782697 19.466031755391892, 35.92240786906456 -0.6145652531552592 M-0.33517408169349494 42.93257664106392 C9.463739794541993 32.20570996830598, 18.731935637612978 20.86842153133027, 36.83384744338815 -0.514873078921763 M-1.5600530914963073 47.978032736712024 C9.093661317152938 37.69394277405316, 18.90459088702182 27.497050602033994, 42.137890922460485 1.7271616801946408 M-0.6153090642765946 49.71697065946542 C13.545193410765018 33.44085462160317, 26.956763204661236 18.444765174878942, 43.08108937143885 0.8594923148258573 M-1.681161776860371 55.740721834305035 C18.452972236571092 32.772185531250486, 36.33732170331464 10.118937576179462, 48.59760448238838 -1.3002326015207721 M-0.025238403794482167 54.81786309782724 C10.33825890203361 43.27320512087723, 20.552786981086165 32.67495497377371, 47.16525799590188 -0.09748179109876887 M-0.6493485494424789 61.57716081058274 C15.531047004736639 40.865328993789674, 33.44953840455352 22.624564331660984, 52.03010947792298 -0.09233669234079045 M0.6935069999749572 60.55738673964183 C16.526509872357668 42.120385335145215, 32.77429146380297 21.879402177948784, 52.59894134546137 -0.00925874659430903 M0.24851349084162422 65.45584565172861 C20.422151047406548 43.62837114758039, 42.77930649879163 19.518550214352175, 57.88934009717704 -1.0317602404136217 M0.4521436467253537 66.88710031523327 C12.859191950081847 50.574025827375394, 26.92294504643632 35.95202773533333, 57.23631164533944 0.6318411068316543 M1.5751606190761933 73.83941296892611 C19.465895064202023 48.08707722650718, 41.497136988626615 23.56346368685807, 64.54057601922531 -0.46331058977856543 M-0.1222916513496628 72.12086724242566 C13.17832448832152 59.131667798405225, 27.183868139869883 43.33503150365536, 63.55284754922022 -1.1042862057195535 M-1.2877386016260317 78.01126873902706 C16.036565550427852 58.44652856931164, 34.633683609135176 39.37008849000271, 66.94947018218055 -0.5938161385838256 M0.3761311434720227 78.66773436721144 C20.780915484383467 56.05982559164765, 39.73038249322685 32.49360814882228, 69.42811190732583 -0.07910165075551134 M-0.6096701171902907 86.85512124299214 C18.282202882682736 63.30913512419831, 39.38318509809328 40.266946233734814, 72.86802101511749 0.5326970191313194 M0.7558984973745453 84.21771490219191 C29.07187316729112 52.66987732379906, 56.78763748083005 20.02010137545973, 74.4254739983404 0.3456501718251275 M1.3777533854961561 92.95515770767317 C27.088426319725986 59.29230740402097, 58.38331145432096 24.509216775574075, 78.5236002061489 1.1351817352186373 M1.0108310730800198 91.24821506835953 C30.503136057296345 57.88246761891202, 58.26146954604546 23.352384917169985, 78.57488729748604 0.8143676705147556 M-1.989294318482436 97.3755772442536 C20.956081398372127 75.25517873383865, 39.396686148982006 52.79102367935295, 84.80492493434951 1.7203931656388534 M-1.0562530672179236 98.20981703353837 C34.089809725775254 58.32729706069952, 67.29171939298237 19.673144243080486, 84.6526117084469 -0.5913343795852768 M-0.8375300790418123 103.98721958891693 C29.951860451365583 65.21945637486408, 60.632033618109055 31.154307313066028, 88.95108563783208 1.1830654122437494 M-0.7704655488256549 103.25915765305254 C36.45519569966343 62.01142218463587, 70.63823942140851 21.599188280896357, 90.96399133144507 0.15380180501743723 M-1.7872384580692326 111.79419384351493 C33.16418127806804 73.58488919474036, 64.0582251265113 37.118292695672864, 96.7375182456714 -1.1692651190059564 M-0.5217747715210592 108.99180721039446 C29.260015528803976 74.90388785260465, 59.86465339861566 40.890719725567706, 95.62317669516474 0.4497503744242408 M-0.422358526489937 113.71341141400835 C28.802618756942866 83.40766358118182, 58.81044911368183 53.31265603212209, 102.16503194598013 -1.5160830762584752 M-0.14134270662000148 114.62805235566547 C31.993537039372153 79.63829809172965, 63.19865693292052 44.26990915409863, 101.33590252482796 -0.4223715128724521 M0.3667209907803368 118.41063391158062 C42.2526815694379 72.98850225064785, 82.97574712207982 27.788612287175397, 107.64578141783309 -1.4990708035531028 M1.8494299580711555 120.25519400668966 C40.39503983580901 75.3107496615267, 79.34008173689512 32.28514980806274, 105.67920997411889 0.1307696682286874 M7.944897830797359 119.34413483174694 C32.498765100385725 88.88961354355631, 57.19912876971732 61.89984390318432, 111.69229459934301 -0.12193169903805057 M7.894389934217557 119.27745902812285 C29.718897345472982 94.22693961419444, 53.83883143243945 66.73276263992165, 111.88422439325966 0.5211504512200733 M11.685029786721344 119.39313367747293 C50.18193657981134 75.41620327196097, 88.39883510723915 30.119093732341753, 116.44738589059415 1.02914272347018 M12.249054927088793 119.45068435457127 C41.56725681838136 88.8172892922705, 68.44641679888227 56.990983753493744, 116.45981853194388 1.1651733164258289 M19.026615287627052 119.82610435471932 C42.137599945920456 89.62619672529405, 68.21547852618353 57.02782568444795, 120.68530197969923 0.3762303158233564 M19.133044215368997 119.25687538613627 C41.59913897878676 92.48436619466835, 66.37017618222933 65.69039995430253, 119.28750836539368 1.4806741723383468 M23.884526021627195 120.17449971533789 C46.80135131628479 95.34372252244984, 66.97164127062274 70.61901863533392, 120.06133990078047 6.902759135096055 M24.232561274280258 120.18418053131028 C52.61671414691723 87.51290010390133, 79.47063194023028 53.8052883806494, 119.96482115234062 7.846253195172828 M30.178920138806063 121.01228449551213 C47.805116053858356 97.87836356816707, 68.4836393706206 74.56441794981754, 121.29781926589368 16.178330801803455 M28.32405697851624 120.9126741454174 C64.25108395195429 81.11553003318363, 97.59839169904083 41.175387789364976, 119.08501766694991 14.032348187085077 M34.8045651642479 120.2825640564255 C65.35427494557737 80.07384635528356, 100.62309002269564 45.68299749851542, 118.5609919751231 21.968316302128997 M33.33730251527056 120.0472352712817 C51.888539655984744 98.40395431135214, 71.01398045057147 74.70630970741428, 120.70775190891516 20.21708037839916 M40.60016091106542 119.62421312492982 C68.38329260591617 85.52547589307694, 94.84256884643278 53.401513852139445, 120.36671930355297 28.032227247256195 M39.418462297265314 119.85042637989567 C65.7617838837813 88.60588785340576, 93.47688056737272 56.108427678981265, 120.35849819042997 27.190875686939215 M45.87825268333343 121.15140873198578 C65.17869983225793 95.83416752493704, 84.7581145073978 69.32636664054425, 118.54979481429606 34.45034461403684 M43.55375716568467 119.42827630886057 C60.561695816071804 101.8052327291483, 76.08813859071535 83.67859807562532, 120.0916240492165 32.089343458697655 M50.11425904416464 121.55380685444517 C73.84319755668562 93.71722667284703, 97.93845987832675 66.54399329436554, 121.79385756142712 38.4032516834316 M49.35224215825073 120.23670690416886 C70.63305841024747 94.62038985942799, 93.70071224061954 69.77042436863377, 121.11405345145887 37.57905940627578 M56.13244404763382 120.1213657732687 C71.46577771561076 101.378154691482, 89.6765593813686 79.01283536752388, 121.32041985805887 44.27201068229231 M54.32552874114763 118.51260637842185 C72.78405362062708 99.052777340514, 92.44155764123073 78.3257143560843, 119.56804455987918 45.36399225066605 M59.79494500685369 120.84452271530817 C82.473732248659 94.18739975434683, 104.05985014014274 71.29057270358058, 120.41878047927558 52.41769572180243 M59.67056257709746 120.78025595261197 C79.93825367730594 98.02446379504676, 98.90603728682261 75.14982014235856, 119.15485293667108 51.371286659692544 M64.18774472589904 120.43901721152429 C75.75831298780751 107.29413315127495, 89.2379199033222 92.21495801228696, 119.41534757516152 57.50802153814545 M65.5493457572844 120.28240321434055 C79.20799384001242 105.35172580503517, 92.78475008001844 89.62393589470962, 120.19780445652819 57.484141988679376 M69.30969926788259 118.44606773876885 C88.04318334222236 100.38307380540908, 101.95385970987063 83.5867729303283, 118.64296158382942 64.84397223317316 M70.87171456943054 120.48668875960001 C88.15090442648503 99.55285837597528, 104.40925614706656 80.45886244291776, 119.70536821967264 62.27469102111897 M78.2585101868791 121.25719507800252 C87.55958160851144 108.038365688383, 95.5423679367933 96.89830852234208, 121.97080843435403 69.13933421284625 M76.57506172972 119.51671955099167 C92.22052857542496 100.01833336707844, 110.16112783600911 81.68692927188216, 120.99481975478854 69.18978290711263 M82.91975229600133 120.21439895607716 C94.30304438504749 100.8853770912078, 109.89704308206677 84.1771701996764, 120.49344731484808 74.62087282901652 M81.40711415087493 119.65849555950797 C95.53378573978367 102.64208116328194, 110.99732260925079 86.60224398966996, 120.47501878709801 75.05740980515279 M86.15284589932402 119.63498140395342 C96.14120864949375 111.07619840770025, 104.22169998420209 98.46023292845717, 120.06072387539587 81.80786531786747 M87.20565517407944 119.79148312275021 C98.33118365371234 104.75038841073028, 112.1117754286594 91.61566494376488, 119.2700724412947 82.27248982056356 M91.48008455995992 118.91172339848313 C100.00762999634321 111.08200304229062, 106.05206417605385 103.3560090665705, 120.24709314108162 87.83872954058255 M92.68130233705566 118.89504158671085 C101.13202052745689 108.35428328965482, 110.32693833262391 98.235311436061, 119.28240815457224 87.52974574616904 M97.27260733198378 120.53770822062698 C104.22112860746017 112.03100623281658, 106.75128187263893 108.45021606364728, 119.32094242501805 92.79765272401359 M96.6972296059877 118.47949666399118 C105.31669801164881 109.83945539537041, 114.61129994618572 100.07917791041449, 120.25584658965269 93.55658380296167 M102.43942652850835 120.20649809723676 C105.93311287215268 113.82734558718, 111.41009689485817 109.89634071967637, 119.77450453127997 100.49412439912123 M102.0519451435977 120.09256707558364 C107.68122566179944 113.2397081328253, 114.6362139369454 105.49922856588285, 120.39926483772027 100.29887657854272 M108.58090108672994 118.88415446961726 C113.06081464023569 114.97925874955989, 115.77490084591777 111.44584097852318, 121.82134435134738 104.679217160352 M108.71195331544521 119.70628678445199 C111.67973890117008 114.96198204437513, 114.26339297181416 112.60314594069087, 120.16218414851262 106.3570661238846 M113.55784268154156 120.1712320607978 C114.83632230432184 117.68564105846326, 116.89317616675639 114.40778995569866, 118.85999745389711 112.6832686259426 M113.55263013940629 119.55661064925447 C115.51375710920287 117.39616266898616, 117.13018870065041 114.73583533837197, 119.36520015288409 112.32275142632572" stroke="#40c057" stroke-width="0.5" fill="none"></path><path d="M-1.2034396473318338 0.7647836450487375 C25.66977604314343 -0.8635539356501614, 50.16586122519584 -0.11755442059355126, 116.5279669817537 1.7480824831873178 M-0.9108115611597896 0.21513125579804182 C45.89858201519346 -0.008372488019049329, 90.6522934092347 -0.49403885245043055, 118.27215541619807 -0.5319984527304769 M119.27046585641801 0.9112614039331675 C118.09838209587917 33.493939136945485, 120.1315945788084 68.89213238814628, 117.13163894973695 119.41405525244772 M118.68419684190303 -0.880338248796761 C116.43599032112154 35.99258560146664, 116.51304586478265 71.56308311353423, 117.74113861937076 118.57260814588517 M116.07166284881532 117.30768766440451 C74.79180139576891 115.96691019038659, 32.76164048898717 118.03419495324593, -1.8124586287885904 116.6259359959513 M117.64462749380618 117.88406601827592 C89.48407415264992 117.96673430665814, 60.20149341433789 118.15480642184102, -0.5118277547881007 117.37885487359017 M-1.8130932990461588 117.98976799286902 C0.42428473975905945 69.7229130604548, 0.4274107053543048 25.990445716541572, -0.2257735077291727 1.6870084051042795 M0.07329411525279284 117.79664361756295 C0.2666912100744594 73.98001372202307, 0.8334909401369441 29.301326140631133, 0.7850153269246221 -0.5251540215685964" stroke="#000000" stroke-width="1" fill="none"></path></g><g transform="translate(846 284.154296875) rotate(270.30480014737384 81.66796875 79.869140625)"><path d="M0.24718101023237438 79.7156507749637 C0.24718101023237438 79.7156507749637, 0.24718101023237438 79.7156507749637, 0.24718101023237438 79.7156507749637 M0.24718101023237438 79.7156507749637 C0.24718101023237438 79.7156507749637, 0.24718101023237438 79.7156507749637, 0.24718101023237438 79.7156507749637 M1.2849075695311925 81.47414105150378 C10.991807095002342 73.86167381924426, 22.618448159954987 63.384122169124325, 33.45445684803342 46.16256256382908 M1.6457227434775135 82.38340261436528 C12.86644156338983 70.63060041784064, 22.546662754320092 58.97556044156545, 34.65419103571838 46.53153630420561 M7.36566981153053 86.22797298360122 C21.221898966878314 71.09649031413193, 32.98840892114828 53.485942807685916, 71.14531303339477 10.13633345429291 M5.871215165978789 85.40777755550546 C19.45582583912929 67.43493233844391, 35.69478076277941 51.703299598546494, 70.9061964308175 11.73881044693728 M9.660381257021072 86.52380663994182 C27.8645282428378 63.67822498962107, 49.77064379253166 40.688073543138294, 83.12452783439483 -0.3680247662151359 M8.906008011148515 88.172855125735 C31.7136908276847 62.15034272156285, 55.16937429247395 35.1300583758099, 83.30518680721696 2.2212523308088876 M11.864781652096575 91.41492571193183 C27.795765308376026 71.88311413356928, 45.16226368363669 52.853225186501724, 88.32521080698498 6.079393515369603 M10.764047812189823 91.89173957310075 C37.993790684962725 59.13475335085943, 65.73387211981903 28.883918303950942, 86.77337694547751 3.5070646880257215 M12.711720117850788 94.26125451597751 C38.24213668872015 65.50712228782133, 63.41300701736283 39.41536111622951, 87.81113991110709 9.022924956889028 M15.081351414805837 92.73358983314962 C33.01471583501856 71.82624246711869, 52.289827347212565 48.696174628567185, 89.79236096765038 8.544545358070309 M18.252596121386965 95.54656757370788 C32.493220584345046 76.10439848466154, 52.683472287438335 55.780826677815874, 93.87337607583592 11.504480964303845 M16.491196948209186 97.04707910915124 C38.516985378276885 72.12506917241012, 62.20494217593675 47.00417317428908, 91.59347690241972 10.491480991043979 M19.41909559177985 99.92215129108362 C38.84868761840468 80.36164982578354, 53.196461359869716 59.78417450199682, 94.18441251827471 13.824242309243076 M20.27960994108399 99.81030655120693 C38.31455662023782 79.47379042424998, 55.886887225520965 60.05415671913277, 95.40570600399815 12.882091665216379 M25.024336746132704 102.7975614397338 C48.23884145889364 75.10140195815815, 69.26139799649518 52.15113147906863, 97.35991085951721 14.58432080811297 M22.480259147642883 101.62780473758637 C53.514701380936174 67.93411829434206, 81.6787963885987 33.17143944560202, 98.11115886808878 16.076942566134385 M27.32460620553926 103.38428483606464 C50.24926655656739 77.86102111867282, 73.38311021221884 50.87567729442093, 100.58408306666665 18.26067848254256 M25.529942663588976 105.18045135383642 C41.09614167657867 86.54558177331455, 56.82096906184426 69.36871910657638, 100.96420737390422 19.24111314706765 M29.644740937102775 108.26765850170516 C57.718348406065985 74.72389089608917, 84.96561070282836 45.32014107847917, 103.17142756879782 20.246789238492532 M28.987719868134896 109.20363835322671 C47.467692352060205 85.5371900599097, 67.2923245943979 63.925299417033756, 103.24697080012864 20.794108808117493 M31.93986436989801 112.45053134261607 C59.49948580627873 78.3806375387537, 89.07250331705687 41.0902930673013, 107.56787508301396 25.44439634759192 M31.190397539964785 110.93718363585859 C47.382127194120415 91.72841391780382, 65.45569961475378 72.55449598423718, 106.36421165097464 23.406868377553565 M35.796532221028194 113.94402163042639 C64.29954074872352 78.54635010973976, 95.19410232696114 43.77541106661056, 108.91252473040879 25.30717412624697 M35.34742568329124 113.12233853000168 C58.37508652992702 86.2575578014541, 80.02570898818001 60.98299240637139, 109.49882177214533 26.451675790922742 M37.9944686115871 114.81117868154239 C61.48794970250874 87.2178799029366, 87.95746265665773 60.72545410025695, 110.66302597808559 29.412647096086715 M37.19638364381742 116.4516994712029 C53.12695941015727 97.53578818805435, 69.1528255692375 79.2539163217476, 112.33095429285336 29.98032925149468 M38.131948008677966 120.73890201759306 C69.0455950356812 87.45415993217516, 97.23126402844595 52.043068016332924, 114.1573147551191 34.50585166307184 M39.722112050755925 119.54737716273186 C68.67051737261292 85.44132020889757, 97.53772992960225 51.74333836184432, 114.69350974178286 33.17405290937069 M44.18753134137553 122.08160304453912 C68.90165522395212 88.93704877976367, 96.26972169627061 58.433695951945396, 119.61475927861258 35.09009359883139 M42.81219893279088 121.4109082546899 C70.88621158713843 91.50928711076862, 97.80900831540333 59.431843312654365, 118.66703187314644 35.34050434282044 M45.52121182678307 124.45196253400962 C74.23010259554647 91.53061186568117, 102.21824492631242 59.25398530282578, 119.69789616965977 36.4706097197716 M45.35187554413493 124.4202628253467 C75.42022631925067 90.25158440845661, 104.08726287134579 57.68512007802785, 122.23519378264723 38.363686237390795 M50.436151085994325 125.76459230241076 C74.2930049211007 96.31808384920468, 100.62386196239149 70.84862760944449, 123.13781239536391 42.32648704752149 M48.87950248049118 126.77975606024907 C78.3151106395041 93.31910860922218, 107.21332744108902 61.90859953008221, 124.00392984949784 40.68211554635139 M50.46012011510304 131.0532447911488 C77.85504433360771 101.50524490210111, 101.91822938722714 75.51057770869778, 128.29588138479977 43.75432448804178 M52.96176065006277 129.74350783244392 C67.90325215941884 110.67831714210006, 85.51817630857991 92.85879156010469, 126.85692185238241 43.73873516980358 M54.62694025621244 133.28802264685282 C74.07021922030161 108.2061969065656, 97.19892333637478 85.04951166939288, 128.16490885507056 45.85899031296149 M53.5688422445623 133.83890228270093 C68.14466383668861 115.65228813845621, 84.61849130698934 97.29336097863286, 130.05049479551354 46.977921436017006 M57.03821931339733 136.41904040048345 C78.03434201486442 112.03906236676046, 100.77411818538643 83.9380471891213, 131.93086892727013 48.797283838686845 M57.729936855173925 136.31649949862137 C88.0509420393504 100.83032217841239, 118.12208821870479 66.97756778509189, 132.86910302459444 48.29539578053852 M59.86449737876092 139.96718194866975 C77.08245608921666 116.40734471895738, 93.34400612558014 98.08722736148351, 136.59828606850158 51.3498545868469 M60.62812729861026 139.1470429959749 C82.49868077437748 113.25530077173985, 106.29541617002218 86.89648120095225, 135.3444621688376 52.0163939066378 M64.90698294839697 142.06776223281798 C88.45946512725986 112.36410663228303, 114.42838237808064 80.02076371700164, 136.55197120783978 55.96486396340234 M64.25587573307442 140.47137139780847 C87.14412227349678 111.82791899999111, 113.45895311323922 83.71602218416288, 137.91103525692725 55.34557746441615 M67.22293486440873 145.04244639955712 C81.21075500621863 127.44755208551541, 95.80295981320485 107.7663956711328, 140.55816756238795 59.3487427399822 M65.13415560027903 145.57858759489162 C94.42490059011078 112.89434390199008, 120.61068663792618 81.34628816719278, 141.500928543076 57.36404153214325 M70.68739843087096 146.44291147984794 C90.52432148195095 122.80028475059237, 113.54111049653076 97.0735475080384, 145.32628675323983 61.50985273299273 M68.96793774140824 146.35597042482576 C98.05269081994877 113.71541802065674, 127.52131784196985 79.49991322381129, 145.19937762298693 59.47922629536595 M70.9943512398869 151.6416038703194 C89.7604644741854 130.83868562401142, 107.8727175569374 107.42860429895669, 147.13429074749865 65.33040596406292 M71.74108622317465 149.28598215338047 C88.17403635353782 129.33921681210833, 106.83405665848206 110.34146600716653, 146.9638793758727 63.40308620735389 M75.21843928755027 152.87540101237775 C106.09813337656381 116.8573300365253, 133.76039490696834 83.74836915882842, 151.3904279742392 65.61012633915354 M74.37184445378136 152.89618015360267 C92.13977970442477 132.1809709636023, 108.35828409216467 113.24662927111902, 149.27967808041743 65.60200166820843 M76.09641794495488 154.0628209724293 C103.25218795148749 126.62011069760682, 127.96189162250575 99.51319529528502, 153.6343791505647 67.65700712989354 M77.08802615393157 155.98267648603925 C103.77161744024943 124.80931307952157, 130.18298924620134 95.53853502514295, 153.25466124083374 68.29378650619918 M80.30859292920395 157.62123202210302 C109.70265733409437 126.60914743003895, 140.73065498906473 92.48209244678705, 157.09899339756893 72.33097265268921 M80.80220632783785 158.8335974789598 C100.47352215843483 133.66161814772283, 121.5078283787818 109.77378360933407, 156.27484570282476 71.89759965687304 M82.04055641937222 161.51051431735965 C107.91477487885317 132.1903908998561, 129.08095164384207 108.74551592810313, 156.33567018235507 75.61579742916959 M82.76720737918433 161.67899540746572 C106.10471728662921 133.9884628457079, 128.18254601668264 107.54482411858767, 158.72350959560308 75.01211432349967 M120.78728433208835 124.08833836868955 C128.83371016601134 112.72719321792458, 141.3099740205803 98.37944759397415, 162.776095433998 77.66276786529534 M119.47394638670903 125.95237696368797 C128.868029457971 113.54342185297004, 141.0087743620347 102.67839618339919, 161.63667844785292 76.86542965618037" stroke="#fa5252" stroke-width="0.5" fill="none"></path><path d="M81.69633085094392 1.586505914106965 C108.43248620078592 26.908489520278604, 138.00594890618083 57.7352753603727, 161.51143956743175 81.6602970007807 M82.26129148621112 0.801330897025764 C105.62097021311128 23.88200286658008, 132.484379608884 48.75424691916903, 162.363405955024 80.92979246657342 M163.7867143210023 79.4479266051203 C138.246918139415 104.35382542938547, 114.88188097908387 128.6250188339252, 80.68642348609865 160.08637871779501 M162.38161803502584 80.04510623496026 C141.53431336125024 99.03164151631208, 122.540265509389 119.17617120329342, 81.2006028117612 160.03660777490586 M81.68461388908327 159.73532118834555 C54.529854972586364 131.0784556919804, 23.104014149792818 103.20837042443496, 0.32511246763169765 81.50392504967749 M81.8069420279935 160.63691452424973 C58.14010007963192 134.79521565811802, 34.59022074420613 110.85017800690794, 0.5640190364792943 79.76290989201516 M1.9705349262803793 79.69142648018897 C20.064306403510276 59.81921773759649, 39.18765125200153 40.89564504085109, 80.87324625812471 -1.529874062165618 M-0.08257906418293715 79.82599282544106 C22.165925784409048 58.495189830269666, 44.28079052027315 37.01299815585837, 82.15119491238147 0.3296155659481883" stroke="#000000" stroke-width="1" fill="none"></path></g><g transform="translate(10 81.65234375) rotate(0 58.908203125 58.908203125)"><path d="M0.5368447974324226 -1.964783139526844 C34.56136283658998 -0.2817762416355256, 64.24952375904832 -1.8777022880069856, 115.90316373854876 1.870729736983776 M0.42001667246222496 0.62479642406106 C46.6460832890487 0.5033870937685423, 93.30662485070353 0.8978981973986082, 118.37271955236793 -0.2005813978612423 M117.33518392592669 -1.0828053429722786 C118.64160824456616 31.908748198520335, 120.2202804152052 64.21993522389967, 118.9049406722188 118.46150117367506 M118.04594590887427 0.10887352004647255 C116.12963415225371 31.140086020798485, 117.45416868766173 63.42194320538839, 117.76869502291083 118.74776342883706 M118.01390177756548 119.12301736325026 C87.28805065789638 116.243805381212, 57.794690077778064 118.96570465222335, 0.6848014071583748 117.86513119190931 M118.7953454516828 118.19061068072915 C81.68371710391801 119.12481723670746, 46.311983623096594 118.03314517383362, -0.8970398642122746 118.80512085929513 M1.8750003054738045 117.95615177601576 C2.5033599429727476 78.20597131276881, -0.6867209381460271 39.60501417715858, 1.4353728964924812 -1.1149134114384651 M0.2340111993253231 117.7710088826716 C0.4010417854007391 93.90531725884503, -0.5412922704998346 70.84813164698134, 0.1327170394361019 0.38421062007546425" stroke="#000000" stroke-width="1" fill="none"></path></g><g transform="translate(280.94921875 59.453125) rotate(179.85931708835795 81.66796875 79.869140625)"><path d="M83.046113319695 0.9360549971461296 C102.8673896611115 21.649166470436324, 122.31171914495641 42.660075997976534, 162.89545685797924 81.55892901867628 M82.90006449446082 -0.9867878817021847 C104.0254119861027 20.000673152729, 122.87039151025817 39.71420479588124, 163.49583759531373 80.5375008918345 M162.92641503363842 79.94102626293898 C143.08060140512893 103.00342615901609, 118.09658447692124 121.11823474326957, 81.52875692397356 160.36375837773085 M164.23629417642945 79.11712792888284 C137.73101643089885 105.16145815349068, 111.58689339875983 131.98485927021744, 82.29608323797584 159.9722615815699 M80.22298414260149 161.4058287665248 C51.78237131287736 133.46562662432234, 26.38754094367308 103.72322391447204, 0.6635294631123543 81.23071389645338 M82.31867482885718 160.49094501510262 C58.48309206160556 136.90217107157426, 35.27579222041022 113.61908473311398, 0.8877679370343685 79.44608858600259 M1.237822599709034 78.93471055477858 C26.38249508515001 55.126574474349624, 51.60078105032445 31.11025904394686, 83.26583892852068 -0.6890813782811165 M-0.9627788998186588 79.69972685351968 C29.470403617620473 51.09747960336506, 59.140122563391934 22.13203560478984, 82.00075009092689 0.20763913169503212" stroke="#000000" stroke-width="1" fill="none"></path></g><g transform="translate(870.462890625 69.994140625) rotate(0 58.908203125 58.908203125)"><path d="M-1.8459307476878166 -0.9231216385960579 C23.938527842923943 0.1185472765578015, 49.14322111371148 0.3386231222761853, 118.35448700934649 1.6963344141840935 M-0.6078929640352726 0.3987330533564091 C33.165549045977244 -1.7206286984439068, 68.18462322762062 -0.8053465682025127, 117.7400774024427 -0.4698004387319088 M117.43622643500566 0.3401504084467888 C117.60982191218892 37.51745199084834, 116.77080762042561 75.90232651026162, 118.29198629409075 118.54071455448866 M117.67389335855842 0.760217223316431 C118.44910721771288 30.877644801921274, 118.06640832416582 59.58104421280151, 116.94291093572974 117.3240911103785 M118.16199476271868 119.7195036932826 C89.29861474499485 118.89388078289907, 59.0336920636968 116.91176241475027, 0.2504893019795418 117.1855021044612 M118.09636190161109 117.55566516891122 C72.6603401170214 118.23082190448783, 27.59568292593758 118.75196188385031, -0.42609772458672523 117.65314272418618 M0.12556368857622147 118.90121751278639 C0.45226746905696924 93.89664107264397, -0.4245428432141489 68.56985241326328, 1.664810486137867 -1.933023639023304 M0.7917148135602474 118.68217161670327 C-1.5285574586210715 87.60730542341334, -0.31313470910172336 57.7309598905238, -0.41834018006920815 0.30116787925362587" stroke="#000000" stroke-width="1" fill="none"></path></g><g transform="translate(845.939453125 49.798828125) rotate(0 81.66796875 79.869140625)"><path d="M81.07687836140394 -0.004616670310497284 C102.97816623692341 20.823383109801508, 122.328198865446 38.92028026484797, 165.03227191418404 79.75850708037615 M82.39873305335641 -0.7567814327776432 C102.07483544744608 20.41550505960913, 122.898214120866 39.58032129014464, 162.86613706126803 80.2630219720304 M163.67608790844673 79.40036613494158 C135.1191990124642 104.98838859739597, 107.94607655792771 133.48426496088183, 82.72430830448866 158.824447222054 M164.09615472331637 80.445586707443 C138.82110179920693 105.13484948984464, 111.87026490348346 129.3863422339395, 81.5076848603785 159.1941765807569 M83.9030974432826 160.15496594458818 C63.57423742658764 138.84416803507338, 40.89932913354904 119.88637640614469, -0.6309041455388069 81.62599069625139 M81.73925891891122 159.50555601343513 C56.51363162938898 134.8873005789917, 31.627486729812077 110.12874161154555, -0.16326352581381798 79.10634544119239 M1.0848112627863884 80.92446596175432 C28.286235805600885 52.78984015487134, 55.66214490830899 27.200660609230397, 80.0669763609767 -0.9840792939066887 M0.8657653667032719 79.36001613363624 C30.058726841211325 49.89261741511524, 60.51472459360958 18.865223030969496, 82.30116787925363 -0.32530054822564125" stroke="#000000" stroke-width="1" fill="none"></path></g><g transform="translate(889.935546875 91.279296875) rotate(0 37.880859375 37.880859375)"><path d="M48.8794953240021 2.3994892067391334 C55.76804097204361 3.7366700408519753, 63.42184601056715 8.806285419960844, 68.06119013012477 14.595169251427425 C72.70053424968239 20.384053082894006, 76.6010778383986 29.62656483379894, 76.71556004134783 37.13279219553863 C76.83004224429706 44.63901955727832, 73.4869291761944 53.4096726005999, 68.74808334782017 59.63253342186555 C64.00923751944595 65.8553942431312, 55.51136441993373 72.16731556973949, 48.28248507110245 74.46995712313255 C41.05360572227117 76.7725986765256, 32.44874673390086 76.01403659083577, 25.374807254832497 73.44838274222394 C18.300867775764132 70.88272889361211, 10.003005198175963 65.38472517210877, 5.838848196692265 59.076034031461546 C1.6746911952085677 52.76734289081431, -0.06753337189399095 43.14087851221898, 0.38986524593031646 35.59623589834054 C0.8472638637546239 28.05159328446209, 3.863185850708227 19.642522276350327, 8.583239903638109 13.808178348190868 C13.303293956567991 7.97383442003141, 21.530227518098087 2.4926966358212974, 28.71018956350961 0.5901723293837904 C35.89015160892113 -1.3123519770537164, 47.136709258537415 1.5517496368319215, 51.66301217610723 2.3930325095658276 C56.189315093677045 3.2343153822997337, 56.06596383951417 4.946047687503516, 55.86800706892851 5.637869565787227 M44.73890999847863 1.8830446928194107 C51.94006538248642 2.2782728173289843, 60.355620073160466 6.008466185197544, 65.25707310007164 11.086975311519442 C70.1585261269828 16.16548443784134, 73.34624699260935 24.907771073164152, 74.14762815994567 32.3540994507508 C74.94900932728198 39.800427828337455, 73.69969644410257 49.02974451870476, 70.0653601040895 55.76494557703934 C66.43102376407644 62.50014663537392, 58.860003605020545 69.53583554223319, 52.34161011986728 72.76530580075828 C45.82321663471402 75.99477605928338, 37.93584075221854 76.96192318706835, 30.954999193169932 75.14176712818994 C23.97415763412133 73.32161106931153, 15.625307727270982 67.59083567722882, 10.456560765575666 61.844369447487836 C5.2878138038803515 56.09790321774684, 0.7611373726945659 47.86814638652884, -0.057482577001955804 40.66296974974397 C-0.8761025266984775 33.4577931129591, 1.4177909787853205 24.924606041742074, 5.544841067396536 18.61330962677863 C9.671891156007753 12.302013211815186, 18.2138808967763 5.87774276447851, 24.704817954665337 2.7951912599633033 C31.195755012554375 -0.2873602445519041, 41.341658295304896 0.34441483804828843, 44.49046341473076 0.11800059968738452 C47.63926853415663 -0.10841363867351936, 43.864309142970626 0.588346667889784, 43.59764867122054 1.43670582979788" stroke="#000000" stroke-width="1" fill="none"></path></g><g><g transform="translate(153.22265625 139.72265625) rotate(0 47.25226051354781 0.20186995105817118)"><path d="M0.8541095998138191 -0.8755073871463537 C16.54011763439824 -0.9020815577358007, 78.84322654685626 0.7865853223949668, 94.66114261671899 0.8927820716053245 M-0.15662158962339157 1.2792472892627123 C15.322174462949233 1.443089427314699, 77.75057705822088 -0.7068805951252578, 93.70412755873052 -0.7610820895805954" stroke="#000000" stroke-width="4" fill="none"></path></g><g transform="translate(153.22265625 139.72265625) rotate(0 47.25226051354781 0.20186995105817118)"><path d="M64.26848431610824 10.041760899918495 C76.7844154968773 7.935338911272616, 84.56299102526353 0.5926416359445401, 95.22789253223685 0.8979540345445276 M65.1733867510161 10.587196336919783 C73.44000927031416 7.720119764511116, 81.10604484465594 5.074173744515154, 93.95341773912308 -1.2747843601554631" stroke="#000000" stroke-width="4" fill="none"></path></g><g transform="translate(153.22265625 139.72265625) rotate(0 47.25226051354781 0.20186995105817118)"><path d="M63.85149665486125 -10.475210701080696 C76.69136988281602 -5.497535276324468, 84.61398317981437 -5.7531671952131465, 95.22789253223685 0.8979540345445276 M64.7563990897691 -9.929775264079408 C73.03793170786672 -7.322856459867458, 80.81515178060921 -4.498210881692582, 93.95341773912308 -1.2747843601554631" stroke="#000000" stroke-width="4" fill="none"></path></g></g><g transform="translate(609.431640625 99.599609375) rotate(0 37.880859375 37.880859375)"><path d="M34.322505594037935 -0.5864034713286017 C41.57963623859899 -1.8775460106717474, 52.32956829388648 1.1543495420532492, 58.83132489222126 5.378383858798159 C65.33308149055604 9.602418175543068, 70.63262643901207 17.75710614106485, 73.33304518404663 24.75780242914086 C76.03346392908118 31.75849871721687, 77.20560104026373 40.15702361649197, 75.03383736242859 47.382561587254216 C72.86207368459344 54.60809955801646, 66.39772193551897 63.26433733699672, 60.302463117035785 68.11103025371435 C54.2072042985526 72.95772317043198, 45.79298221702298 76.37578897698248, 38.46228445152946 76.46271908755998 C31.13158668603594 76.54964919813747, 22.3558279297431 73.2670165881239, 16.318276524074655 68.63261091717935 C10.28072511840621 63.998205246234804, 4.761690822169138 55.72378300558604, 2.236976017518785 48.6562850618927 C-0.28773878713156753 41.58878711819936, -1.129517838676609 33.0703541762313, 1.1699876961725408 26.227623255019296 C3.4694932310216906 19.384892333807294, 10.23575403956043 11.845739259907667, 16.034009226613684 7.599899534620683 C21.832264413666937 3.354059809333698, 32.088818105646176 1.880305201410728, 35.959518818492064 0.7525849032973895 C39.83021953133795 -0.37513539481594904, 38.95038374543312 0.44834578754549287, 39.25821350368902 0.8335777459406515 M34.976654386452616 -1.1297870286969953 C42.3135641624276 -1.7880191897779416, 52.28913761612918 2.4490406364623185, 58.55889526003003 6.822279630031552 C64.82865290393087 11.195518623600787, 70.18124792222737 17.985792967828022, 72.5952002498577 25.10964693271841 C75.00915257748802 32.2335008976088, 75.18452967386148 42.285178771553554, 73.04260922581201 49.56540341937388 C70.90068877776255 56.845628067194205, 65.34966918272244 64.58899625132433, 59.74367756156094 68.79099481964035 C54.13768594039944 72.99299338795636, 46.724932074253516 74.84919105035839, 39.40665949884303 74.77739482926995 C32.08838692343254 74.70559860818152, 22.194696722320522 72.60712176282445, 15.834042109098025 68.36021749310977 C9.473387495875528 64.1133132233951, 3.5356449607568767 56.27430271886172, 1.2427318195080375 49.29596921098185 C-1.0501813217408018 42.317635703101985, -0.5021212217047082 33.56659074677975, 2.0765632616049885 26.490216445830566 C4.655247744914686 19.413842144881375, 11.140780020540664 11.270054229352912, 16.714838719366217 6.837723405286717 C22.28889741819177 2.4053925812205224, 32.38887597992873 0.733575569938921, 35.520915454558306 -0.10376849856660186 C38.652954929187885 -0.9411125670721248, 35.597531249747746 1.3810532378623581, 35.50707556714368 1.8136589942535792" stroke="#000000" stroke-width="1" fill="none"></path></g><g><g transform="translate(476.6335424708202 136.515625) rotate(0 47.84078130984676 -0.2271591570228395)"><path d="M-0.650415251031518 0.6054174575954676 C15.204829538923995 0.6062618050724269, 78.24712149581559 -1.0003334607928989, 93.98432314917443 -1.059735771641135 M1.2089780128374694 -0.12234232250601051 C17.555860117351013 0.08331305559724575, 80.50151685538388 -0.38193173948675385, 96.33197787072507 -0.07867180053144684" stroke="#000000" stroke-width="4" fill="none"></path></g><g transform="translate(476.6335424708202 136.515625) rotate(0 47.84078130984676 -0.2271591570228395)"><path d="M69.10669357510814 8.905015489214506 C72.1926373520291 6.632799828448574, 80.14509130062092 6.823175982216484, 97.7810050569847 1.9126361379399897 M67.72880332259992 10.764636664779331 C74.29131067800557 7.549026332640249, 81.30897571966521 5.779037297298667, 97.01624474808571 0.16776527501642713" stroke="#000000" stroke-width="4" fill="none"></path></g><g transform="translate(476.6335424708202 136.515625) rotate(0 47.84078130984676 -0.2271591570228395)"><path d="M69.19427661442991 -11.616006210424679 C72.08022783764221 -9.694106702211364, 80.01477941588465 -5.3091406682599835, 97.7810050569847 1.9126361379399897 M67.81638636192169 -9.756385034859854 C74.48384777345774 -8.430577818112768, 81.48213288704807 -5.659779875437359, 97.01624474808571 0.16776527501642713" stroke="#000000" stroke-width="4" fill="none"></path></g></g><g><g transform="translate(720.2233862208204 136.01171875) rotate(0 46.681459753401555 0.18344188732689304)"><path d="M-0.7586343493312597 -0.8386765692383051 C15.097343744647995 -1.0405136916786433, 78.02158658063658 -0.9962240669876337, 94.1215538561344 -0.7962801072746515 M1.0439438879303635 1.3354142865724863 C16.78194428108011 1.231980423051864, 77.1075761097359 0.8443350860662759, 92.88125469883902 0.32309808762744074" stroke="#000000" stroke-width="4" fill="none"></path></g><g transform="translate(720.2233862208204 136.01171875) rotate(0 46.681459753401555 0.18344188732689304)"><path d="M63.48201816404074 10.161887974179272 C69.54904405502378 10.885022021301335, 77.5113993317918 4.647873830948546, 92.74361281631512 0.21178677672520285 M65.64521965352654 12.060986943243925 C71.71071200486617 7.587342818746711, 78.4313641024683 5.599639502652925, 92.84235846878958 0.7631773715279997" stroke="#000000" stroke-width="4" fill="none"></path></g><g transform="translate(720.2233862208204 136.01171875) rotate(0 46.681459753401555 0.18344188732689304)"><path d="M63.11248734898521 -10.355993236183643 C69.33005110577204 -5.209457726487119, 77.37203058200049 -7.025540610677426, 92.74361281631512 0.21178677672520285 M65.27568883847101 -8.45689426711899 C71.61651407790191 -7.912672116691921, 78.42754808124045 -4.881997722696185, 92.84235846878958 0.7631773715279997" stroke="#000000" stroke-width="4" fill="none"></path></g></g><g transform="translate(15.03125 10) rotate(0 65.5 22.5)"><text x="0" y="32" font-family="Virgil" font-size="36px" fill="#000000" text-anchor="start" style="white-space: pre;">Functor</text></g><g transform="translate(10.2119140625 317.1552734375) rotate(0 58.908203125 58.908203125)"><path d="M0 0 C0 0, 0 0, 0 0 M0 0 C0 0, 0 0, 0 0 M-0.2944097429187844 6.1274378546076935 C0.545495274163216 5.819918041882211, 2.4136149166694696 4.193476049805955, 5.321767095061487 0.7588001523015314 M-0.09157789905088637 6.623373201911442 C1.493089981404121 4.160996054893021, 3.9794758109354182 1.7251245160809539, 5.1199588007801236 0.07062689660463867 M0.8487924777995453 13.041874455332339 C3.6674816517889592 7.356990871999986, 5.406961775108465 4.819159666007403, 10.142152318310869 -1.266831918518269 M0.5275990993808615 12.716304807036698 C2.0836303124836286 8.793870114421864, 3.948188524669639 7.391147384679401, 10.71068455348624 0.7526922318234803 M-1.095608019321249 18.065616224799925 C5.881183681399034 11.763112768557992, 7.327764370269055 9.733283310771345, 17.419888825624664 -1.5085329351085255 M-0.001495316675887537 17.979885619041198 C4.095054038623028 12.186291909800975, 10.288684977511442 6.607241910647263, 16.610175917393942 0.8396738597122004 M0.2551414391211484 25.892765003903865 C8.223021286554161 17.942793155418347, 13.840758472833716 8.159263767391797, 20.751740291992093 1.0528565453528884 M0.7379564449376677 23.855910773105084 C7.3681989992883095 15.887449618211107, 15.173099931792883 8.84276406181429, 20.5197336313295 -0.14066029859935014 M-0.7062254892150506 30.92990557453429 C10.353526446614412 18.298068604125525, 16.938880580852935 9.76819256459651, 26.55180984423718 0.3495674071845354 M0.35297587891569293 29.63914661365395 C8.973439685894117 19.99730715012653, 19.001001726273397 7.486239081449639, 25.29115662505141 -0.6419759090977966 M-1.8660692089330873 35.29384935256218 C13.180605676862115 24.22655605959006, 24.809716022090402 10.998681502625747, 30.474561731747187 -1.7348141389653797 M-0.5362971752044281 36.71968946866815 C7.093395556433476 28.709673896311497, 12.685610043494904 21.986386961555198, 32.742635954587556 0.47599658847444104 M-1.1166094996361977 42.263517128858496 C13.751316305205101 30.717711913784306, 23.235374142280502 18.137370992316495, 36.106864712947356 -0.6982541865575591 M0.3025818096146935 42.04720597862803 C10.208889979808365 32.01887129809106, 19.270626611023474 21.489469108642062, 35.899181247503805 0.21318538776603546 M1.7383973971008473 47.481567809962556 C8.872156259139201 38.135307352589905, 18.879605126883344 27.98099298305467, 42.27896428722494 -0.5204477749438041 M0.21493496093891196 48.42631183718227 C17.391095444737967 30.002601683926716, 33.28855581662341 10.857820114675235, 42.70984293482803 0.42275067403456035 M-0.3614280193346886 52.60893135652255 C19.81521772202357 32.39071193622151, 37.06124781844397 9.879662615750426, 45.878510463005185 1.3123577524151848 M0.7201252097961159 54.264854729588436 C11.61154789068452 42.73881249790103, 22.071719048764763 31.03666682779161, 48.26799001912612 -0.11998873407130972 M1.0809392594824345 60.29998542507778 C14.802529951715542 43.57442941111519, 27.649580473376236 28.564392255834335, 53.161529989675344 -1.2928138938323848 M-0.26816594124782966 61.642840974495215 C15.666893509663556 42.09879835428937, 32.54007470744429 22.98264222806737, 52.52853230642593 -0.7239820262939922 M0.7748419539489717 67.85708830649922 C15.933748832117288 45.920499355003386, 36.859526052811376 26.181847418065693, 58.56645412566067 -0.0604913071472204 M0.6192247848444552 68.06071846238295 C13.686056770492694 50.85239654559272, 27.481819683233812 35.262035766731444, 58.52819817429335 -0.7135197589848197 M1.736263409461678 74.43220766665785 C22.63802993373844 45.74851052633258, 43.89783292959317 21.19267572311442, 64.02509087034841 0.5530679731188783 M-0.2924846473896494 72.73475539623199 C18.222489944990286 51.88950641468524, 38.363974808386914 31.717226021288177, 64.10275680375625 -0.43466049688621666 M-0.6178494905542067 78.22854928709296 C13.296468410359779 60.98183496900883, 28.6486664751497 45.00530426195637, 69.77665273216381 -1.6649458964947925 M0.7785513271157214 79.89241903219101 C17.340611454777083 59.58037598455504, 36.25672973507977 37.885170556546925, 68.1072959473805 0.8136958286504878 M2.1853268782885777 84.15509000345276 C23.000817709665398 60.588538927946516, 42.348340981787466 39.25057200661477, 73.67872896049413 -1.7840717053400112 M1.1319690768884527 85.52065861801759 C23.915987616561335 57.06671511430507, 50.1671755756581 28.032239644416485, 74.13344416119399 -0.22661872211710943 M0.4885206494152712 92.80175434727654 C29.478150069555507 57.31669355441122, 57.16148804491507 27.443723339187557, 78.02131331376461 -0.7554005468775102 M0.8054735419944095 92.4348320348604 C27.074041150666964 60.75039259457756, 55.581046325998884 27.441334281367403, 78.72964857276258 -0.7041134555403659 M-0.8407223317773713 96.09394748443529 C31.50089767428555 63.11219891108394, 63.1950280638626 25.69275337938892, 84.8377762913625 -0.5117524604590642 M0.6360014369709717 97.0269887356998 C33.29506639356543 59.269260289991, 67.00899557480955 19.56462394238251, 85.11839711311416 -0.6640656863616812 M1.6842844051074053 102.49418395579997 C24.270505742769195 74.15044393956802, 46.48555774510252 45.63702458366672, 90.71889290171305 -0.9924997895453913 M0.7602941638555194 102.56124848601613 C30.895948024390922 67.91587446133332, 62.46056630756806 30.315549900489813, 89.41649628481457 1.0204059040676015 M0.2636908684948409 108.20371641790987 C30.95986838316696 78.38603755774074, 57.84944471927223 44.58312992707802, 94.12381489420355 0.7562561765117266 M0.11547072521391755 109.46918010445805 C23.456403703239758 80.82712377803863, 48.934585315217795 52.921760816573645, 96.35229339389176 -0.3580853739949248 M-1.5339761922278043 114.81706858141324 C36.449179012201434 72.40836584397647, 75.30375742583296 30.895197561847652, 102.19409852725917 1.5568618442515785 M-0.4998090729259488 115.09808440128317 C21.46455084445218 89.9818823921461, 44.37715252130007 63.916680442669474, 101.4859543179115 0.727732423099404 M0.010391568336231671 118.033083112181 C26.08138308559928 89.24679476779568, 52.328330106104374 59.36030306922077, 106.06467680026722 0.9999346743223683 M1.7631102339733076 119.51579207947182 C27.05186123934051 90.66618522356623, 51.26212651453966 62.188273783958564, 106.92668573790175 -0.9666367693918332 M9.45322020755522 119.57358331041587 C44.48089818143931 78.01775872881723, 79.40176436062252 36.58242110283253, 111.67788722165294 0.4195398232633849 M6.895865884920582 119.52307541383607 C38.93511166991181 83.2534451724689, 70.28627536060561 49.14096456291533, 111.55301290642835 0.6114696171800276 M11.065927088901873 118.68680723377095 C47.887451163925675 76.89151412532617, 83.68245473855566 34.84951933590011, 114.43838501181307 0.5477230819456267 M12.317000487529214 119.2508323741384 C47.3754312829799 81.52433557607935, 82.28609437638067 41.46262364472764, 116.07394285052868 0.5601557232953596 M20.018601461763453 119.99071609289447 C57.876013375078784 72.53555180716214, 97.45545814964723 27.899467144252185, 119.33928892917285 2.9802683569083612 M18.461892597827088 120.09714502063642 C40.11122665916186 94.88570395630477, 61.52009779228684 72.04674019451357, 120.56136019776861 1.5824747426028054 M21.91373708456517 120.22171879432572 C46.41760149424588 96.51005794586314, 67.45181264337954 70.145367763358, 120.33679932816699 7.604778509913665 M23.72273934338004 120.56975404697879 C48.284138761927906 92.54707903737003, 73.02299836577663 63.05273680838302, 120.23089523422345 7.508259761473816 M27.441145427703816 121.8892048789357 C57.277879225349764 87.72017548616446, 84.61338623647343 56.571870321671696, 121.66117039116381 15.500498716164216 M27.50971962622549 120.03434171864588 C64.64303112173518 79.63938682504016, 100.18227682539516 36.73071016089098, 120.15914613640217 13.287697117220446 M34.47227858657613 120.47717326259534 C57.42665012953685 91.21507261387, 78.63405140554713 66.6824908618531, 121.31861983856004 19.422912266530957 M33.7515670359008 119.009910613618 C66.4289845246998 82.34353045016717, 98.14316124027454 46.192626719002206, 119.19183868134212 21.569672200323012 M40.15455219460734 121.64586097684399 C58.653055613445304 96.68461608356841, 79.13559849958824 70.35962634306398, 121.12200601575242 26.4771118268849 M39.39614276247182 120.46416236304388 C69.82903719404538 83.64567391393382, 101.62749354790756 48.123998611733924, 119.38075333358066 26.4688907137619 M45.566258626184734 120.88627610732982 C75.47149413439128 85.55566602113663, 104.01929096732204 50.46294013127435, 118.78515080616623 31.319428178765335 M44.47159879946646 118.56178058968106 C74.34957140930493 86.26152433000438, 104.0415974395335 52.441609184010574, 120.48429815818369 32.86125741368578 M48.530594764733536 120.49537443559213 C67.68025517882951 101.56453413484938, 83.21052473524081 82.95440079271268, 120.5777528341887 39.811963157820436 M49.30665571195058 119.73335754967822 C71.18836972107239 94.73119618661063, 91.78129845285378 71.5033360573893, 120.02867202367908 39.13215904785219 M56.92663423464101 120.47588279727913 C70.48734810217823 102.78258341851168, 85.65955820699592 87.97837197816429, 118.13941523324507 45.997766295589535 M55.247824868452064 118.66896749079294 C72.2179011071202 98.47070260643767, 91.47524076058122 79.50719570049742, 120.52814237013268 44.24539099740985 M61.50335516933237 119.5114757239301 C82.20153237599743 95.93708975735733, 102.16527735055644 71.31477874841488, 121.13455884873211 51.75536775794359 M59.879686209036755 119.38709329417388 C82.55213707263357 95.35562397789951, 103.58485162887625 70.04424738070162, 119.5462084120819 50.49144021533908 M65.19061244319492 117.86659880119328 C84.68403955915426 97.02498811850936, 103.10981574218425 78.01336427985586, 121.34674515104658 56.00040708575359 M65.74211047723257 119.22819983257864 C85.23935582469767 98.91259845863978, 103.44790766351358 78.54063054132813, 120.1961740515641 56.78286396712026 M71.91316543965388 118.36164531060794 C87.4528105950025 101.12130815618721, 105.14718180130748 79.109230943494, 118.7729991486137 61.887261935558826 M71.55053698810536 119.92366061215589 C89.94741833381406 98.40918675363845, 108.02100731425205 75.8157910884022, 120.64172079114516 62.94966857140204 M75.9016502830965 121.27277958782227 C87.73532149126632 110.3286118316993, 94.7841188971868 98.0395270862559, 120.27872259082075 70.46358101800749 M76.91319586018301 119.58933113066317 C89.9338287082293 102.66400742692595, 103.64293432273809 88.04734104855763, 121.15807093685295 69.487592338442 M82.50660760694804 121.3071136643756 C94.41758132113198 103.12461767308903, 105.09387301823577 89.18698954891629, 118.41172173609294 75.64546073963888 M81.55138578353139 119.7944755192492 C91.34368852762019 107.49530813541705, 101.47939184219646 96.48714790705418, 120.35226536625333 75.6270322118888 M85.50945478559574 118.50253062591611 C96.67439644025755 109.46156484891068, 106.78954451905912 98.49906642137634, 118.05712055482707 81.87197814132399 M88.01669625167837 119.55533990067153 C97.29451707131645 106.96150216222641, 106.6054544612815 97.01270040744588, 120.22432673138371 81.08132670722283 M91.93651370246485 119.20286125398312 C101.66814465083759 109.56829675523778, 111.41740155055503 97.44346774031615, 118.53168364241986 87.30681963893379 M92.91128532968983 120.40407903107885 C100.35473120297591 109.26531246015874, 109.65623127410663 98.83317849838483, 119.66783237178146 86.3421346524244 M99.36998298194263 118.9577073842248 C106.23819684033421 112.21737540642268, 111.36704437920787 101.02620162332346, 121.67813913229654 93.03990976400759 M97.60510188609365 118.38232965822873 C102.3541308095237 112.46404005997267, 108.54739925701688 107.25062090181923, 118.9704872275124 93.97481392864223 M100.76196575745432 119.49761854818047 C108.34248876205599 112.72400376340954, 111.95373349687418 107.94086491384576, 120.52009189884441 98.74194410219354 M103.4561633609557 119.11013716326983 C109.31517261542164 111.55213971205376, 115.74278959608233 105.30303861395295, 119.87528704210447 99.36670440863384 M109.59973884153086 119.60141646461987 C112.57445115124322 115.3156408994211, 117.32563118826934 109.26130229154808, 120.0781935736051 107.4480247633983 M108.50384132650586 119.73246869333515 C111.58496775213231 116.23030776450678, 113.38136026593996 112.34969208935593, 120.73046389822646 105.78886456056354 M113.36186124792647 119.95145002686262 C116.21634178173609 116.53727557611771, 118.33833106391565 113.91085094075892, 118.92518074510883 111.14591870708539 M113.04212465219524 119.94623748472735 C115.50101126160118 117.25545905981157, 117.89487299782445 114.22954773779408, 119.36916378259923 111.65112140607236" stroke="#40c057" stroke-width="0.5" fill="none"></path><path d="M1.4278303030878305 -1.2034396473318338 C31.36227006952504 1.2963900014204046, 61.17252808852572 0.9940292879385015, 118.53996100462973 -1.288439268246293 M-0.3628868432715535 -0.9108115611597896 C45.857692930683335 0.5585352518724904, 90.84921062425492 0.014513257996986884, 116.89482716005296 0.4557491661980748 M118.22222867049277 1.4540596064180136 C118.61301844386838 28.57633654979982, 116.99726640252851 59.686656324602524, 118.3116790894419 117.13163894973695 M117.07515099924058 0.8677905919030309 C117.00381075832945 43.94877740241245, 117.85438516233069 88.78221801693799, 117.33479047100991 117.74113861937076 M115.92703696526587 116.07166284881532 C73.05346681214178 118.48210413513425, 28.571461981893663 119.12170280275586, 1.3307821992784739 116.00394762121141 M118.24937486927956 117.64462749380618 C89.55199049725306 117.35954950176983, 60.79247519718701 116.41397530757695, -0.17170789558440447 117.3045784952119 M1.790851378813386 116.00331295095384 C-0.9547413288311875 87.97124747727538, -2.5956436692433273 57.78452463970533, 1.4259446505457163 -0.2257735077291727 M0.9627327648922801 117.88970036525279 C-0.9521161876963378 72.5715906259964, -0.100288655643344 27.855605100912356, 0.8218347458168864 0.7850153269246221" stroke="#000000" stroke-width="1" fill="none"></path></g><g><g transform="translate(153.4345703125 375.2255859375) rotate(0 46.95269950399171 -0.4996863470010453)"><path d="M0.4588701870292424 0.5227980885654688 C16.093547273737684 0.7000389967113734, 78.88917899808534 0.5573586020618677, 94.66476070210335 0.3413816604763269 M-0.7593616941198706 -0.2483368602767586 C14.641154662941888 -0.38367672715336076, 77.82065454634525 -1.6664513436332344, 93.70964513894168 -1.6019677165523172" stroke="#000000" stroke-width="4" fill="none"></path></g><g transform="translate(153.4345703125 375.2255859375) rotate(0 46.95269950399171 -0.4996863470010453)"><path d="M66.49134764494502 8.909951241629386 C76.68462365619371 5.63616501496546, 85.25946432375885 2.7483194408815548, 95.39919107396153 -1.530138373337686 M66.22086612461263 8.496483276540602 C73.180344995509 5.172356427404291, 80.98682019043402 2.78390614861031, 93.61233338609335 -0.9375894581526518" stroke="#000000" stroke-width="4" fill="none"></path></g><g transform="translate(153.4345703125 375.2255859375) rotate(0 46.95269950399171 -0.4996863470010453)"><path d="M66.29171364816443 -11.610286297277636 C76.43565769481886 -7.263793797117527, 85.08464073492466 -2.5305972602987303, 95.39919107396153 -1.530138373337686 M66.02123212783204 -12.02375426236642 C72.84645604679062 -9.936891747322539, 80.70557698565969 -6.913923186812053, 93.61233338609335 -0.9375894581526518" stroke="#000000" stroke-width="4" fill="none"></path></g></g><g transform="translate(609.6435546875 335.1025390625) rotate(0 37.880859375 37.880859375)"><path d="M5.7116976019542145 18.215232909283657 C5.7116976019542145 18.215232909283657, 5.7116976019542145 18.215232909283657, 5.7116976019542145 18.215232909283657 M5.7116976019542145 18.215232909283657 C5.7116976019542145 18.215232909283657, 5.7116976019542145 18.215232909283657, 5.7116976019542145 18.215232909283657 M2.3898439474533184 26.95781074573241 C9.313508303981411 20.673960454473093, 15.499258198893571 14.49321304782928, 22.915656224276844 3.0392858641308855 M4.120162591537355 25.169079326251072 C9.633298387941014 21.204971512929763, 14.827836486596958 14.612407690415028, 23.68240060788763 2.5574271403339814 M1.8261065117354391 34.10848343837881 C6.913910705715486 30.051084314920626, 14.525070755743664 22.60190581499539, 30.299847244477277 4.0832784177124175 M2.333186121405184 35.34832180663818 C11.627121245858676 23.071132700161456, 23.07342267556401 10.964639575006611, 29.79532650877387 2.3628452784701857 M1.8855318269917447 43.18811244360212 C12.390758355866764 28.430383784069587, 21.324160328463016 17.48269510186786, 34.49612055532713 1.1515229091601569 M1.4840401039683897 42.78115038323257 C7.988227260892595 32.707754548509385, 14.854106962200618 25.737221116070625, 35.206785849296345 3.6759280970873434 M1.7303966426094881 45.69747147205056 C15.064684133676492 31.844509160094944, 23.131927876215645 22.198478090511955, 43.207959502223154 -0.2915129956549123 M2.8245093452548495 45.61174086629183 C14.030968356943994 31.789532561107528, 27.07131092027217 18.334241815845484, 42.39824659399243 2.0566937991658136 M4.393264159032899 52.015201090708956 C19.00104010524236 36.43291622025292, 31.236078076424146 19.037053068196066, 45.227692910609576 3.779295645252045 M4.876079164849418 49.978346859910175 C18.27772814989286 34.36311203145715, 32.83290063259115 19.5531273435547, 44.995686249946985 2.5857788012998064 M5.400074317668224 54.788212920671064 C22.22262982513847 35.40118721608455, 34.58463574327834 20.22603346483853, 49.71564440487364 4.585425667529236 M6.459275685798968 53.497453959790725 C21.392257095603068 36.66014751705768, 37.752464783099754 16.86420396181127, 48.454991185687874 3.5938823512469042 M6.20840768492171 56.888027958030634 C25.931232280592678 40.443092113530696, 42.33333186847514 21.724521523811283, 51.670219205412124 4.765172862047635 M7.538179718650369 58.31386807413661 C17.878530457353385 47.12636278022894, 26.15170522661791 37.31898383581186, 53.93829342825249 6.975983589487456 M8.269985452199613 62.34827657388141 C26.6731787238761 46.83640542324781, 39.64933813033457 30.23886118155481, 56.64646315762179 6.556442394678228 M9.689176761450504 62.13196542365094 C22.527588284932058 48.87334180814427, 34.44940774583666 35.053790689385224, 56.43877969217824 7.467881969001823 M13.749228464898685 64.54748893409439 C22.411563392150278 53.554889321693324, 33.88104245299494 41.71870160761202, 60.850385644927854 8.998377546960302 M12.22576602873675 65.4922329613141 C31.973579695109876 44.12907982261042, 50.45103845024741 22.01634962258445, 61.28126429253095 9.941575995938667 M14.929698193415689 65.90130457954052 C35.871535143986506 44.76607837021634, 53.9043384478681 21.349950008233947, 63.13781376272708 12.340602234764837 M16.011251422546493 67.55722795260641 C27.364498183694906 55.51676931027877, 38.2653086995806 43.3077260439718, 65.52729331884801 10.908255748278343 M20.308419646175853 69.06410116675912 C32.630039660319774 53.971707138914105, 44.070294853552845 40.58000288488249, 67.1405381444447 13.508978489631122 M18.95931444544559 70.40695671617655 C33.30831555121703 52.68979980239188, 48.585925118835945 35.40913887096616, 66.50754046119529 14.077810357169515 M23.93867651458544 72.09294656684392 C35.236425168878704 54.67177333922558, 52.219215942357835 39.46900844126459, 69.2651671354775 18.51484897743015 M23.783059345480922 72.29657672272765 C33.77412622834912 58.57083156368385, 44.59034706539657 46.40804185668628, 69.22691118411018 17.861820525592552 M28.180393115050684 74.89451802588869 C42.38453159425714 54.03495951466476, 56.86552355849069 37.27725476074487, 70.78744970622219 23.65666573903288 M26.151645058199357 73.19706575546283 C38.803113542286624 58.919741034465844, 53.29232998832358 45.24965165753243, 70.86511563963003 22.668937269027786 M30.41869341796835 73.4078925847644 C38.41241629486165 62.8332174990485, 47.9707814851684 53.52172908751997, 73.25871642308506 25.212199770533083 M31.815094235638277 75.07176232986245 C41.10148837278578 62.893277343623254, 52.78036004983352 49.52357176326721, 71.58935963830176 27.690841495678363 M39.12640104772571 72.54204707911926 C49.39413944125271 60.81663873705909, 58.39152344671038 51.385145038435695, 73.22443847747235 29.621331443024484 M38.07304324632558 73.9076156936841 C48.51730186037271 59.95835281385008, 62.10237910325375 45.49457095425953, 73.67915367817221 31.178784426247386 M43.33412607976696 74.3963252009381 C56.15607341183785 57.7546129213589, 67.36590178835867 46.83224770469137, 74.94278671478078 33.66884092237808 M43.6510789723461 74.02940288852196 C54.15528382824057 60.45832109858518, 66.55086774420852 45.68333279757627, 75.65112197377876 33.720128013715225 M48.56547338847938 70.14142253586911 C58.85661617352291 61.67815698216309, 68.97168938379993 49.08257708715054, 75.85471843146411 40.70487523080147 M50.042197157227726 71.07446378713362 C59.99360277919075 60.18468635765242, 70.3624813041727 47.335458749982024, 76.13533925321576 40.55256200489885 M56.33895235728822 70.50398236545162 C60.65371369493856 63.948133698445545, 64.19928267134334 56.911497794721356, 75.8313037809001 47.0165141237201 M55.414962116036335 70.57104689566778 C61.58958337033015 63.86996945409043, 68.47046723923972 54.665033135654326, 74.52890716400162 49.02941981733309" stroke="#be4bdb" stroke-width="0.5" fill="none"></path><path d="M44.12501174998922 1.227346869657886 C51.23347869085266 1.7884302993957113, 59.565463952973204 5.436859759434959, 64.61683510262598 10.64668215345668 C69.66820625227876 15.856504547478401, 73.22244606100294 25.041241982511195, 74.43323864790592 32.48628123378822 C75.6440312348089 39.93132048506524, 75.27781075011603 48.8579782345816, 71.88159062404385 55.31691766111882 C68.48537049797167 61.77585708765604, 60.90381035677003 68.04752828401911, 54.05591789147289 71.23991779301154 C47.208025426175745 74.43230730200398, 38.20929866932624 75.7082704124809, 30.794235832261005 74.47125471507343 C23.379172995195773 73.23423901766596, 14.638298116456035 69.22490190407879, 9.565540869081499 63.81782360856674 C4.492783621706963 58.41074531305469, 0.9464793755620923 49.69078465362261, 0.3576923480137921 42.02878494200112 C-0.23109467953450802 34.36678523037963, 2.1871248707297233 24.269479052998708, 6.032818703791698 17.845825338837813 C9.878512536853671 11.422171624676917, 16.278234001849558 6.2549060647306725, 23.43185534638564 3.4868626570357364 C30.58547669092172 0.7188192493408003, 43.79229816512142 1.1003063750638187, 48.95454677100818 1.2375648926681961 C54.11679537689494 1.3748234102725736, 54.708085097549485 3.77187718222998, 54.405346981706174 4.310413762662002 M53.76164211177705 2.4144007898496156 C60.57376601576018 5.149520518624305, 66.66613584243589 12.742295309513143, 70.45740731862433 19.70866678669805 C74.24867879481278 26.675038263882957, 77.24704661942059 36.96661932928387, 76.50927096890767 44.21262965295905 C75.77149531839476 51.45863997663423, 71.75680684288147 58.0590251223619, 66.03075341554684 63.18472872874912 C60.30469998821221 68.31043233513634, 49.87193390021909 73.711890704723, 42.15295040489985 74.96685129128238 C34.433966909580604 76.22181187784176, 26.108795049801504 74.0472037056788, 19.716852443631396 70.71449224810536 C13.324909837461288 67.38178079053192, 7.1866063115436365 61.85352434345394, 3.8012947678791917 54.97058254584178 C0.4159832242147474 48.08764074822962, -1.9177916931935695 37.06932997923762, -0.5950168183552691 29.4168414624324 C0.7277580564830313 21.76435294562718, 5.782327778492825 13.976046545173133, 11.737944016908994 9.055651445010458 C17.693560255325163 4.135256344847782, 28.11037502639587 0.8175393277598454, 35.13868061214174 -0.10552913854365187 C42.16698619788761 -1.0285976048471492, 50.93953941795116 3.035270463455627, 53.907777531384205 3.5172406471894746 C56.87601564481725 3.9992108309233223, 53.27337501710459 2.3425736742826544, 52.94810929274001 2.7862919638594335" stroke="#000000" stroke-width="1" fill="none"></path></g><g><g transform="translate(476.84545653332043 372.0185546875) rotate(0 46.81634236300363 -0.20820858018322497)"><path d="M-0.013466856256127313 0.3413816604763269 C15.762114847761884 0.1254047188907861, 79.15560309371598 -0.8851212110370398, 95.11236041113732 -0.7730635609477758 M-1.4796756851300596 -0.5249969131126999 C14.135720213328796 -0.6499940008297562, 78.22695129218198 0.40376694139093156, 94.39223469521848 0.35850332077592606" stroke="#000000" stroke-width="4" fill="none"></path></g><g transform="translate(476.84545653332043 372.0185546875) rotate(0 46.81634236300363 -0.20820858018322497)"><path d="M66.6910957692281 11.122026865556837 C74.35200476332898 8.753816339740624, 86.89204830050907 3.6816523663472136, 93.66646100867537 -1.463119801543653 M66.1789529685021 9.47689302098006 C75.60676138598548 6.761724911610257, 84.14291136628025 4.730119876295208, 94.59514590546486 1.0855331239849328" stroke="#000000" stroke-width="4" fill="none"></path></g><g transform="translate(476.84545653332043 372.0185546875) rotate(0 46.81634236300363 -0.20820858018322497)"><path d="M66.85147717375752 -9.398555002190491 C74.54753990088112 -4.825918696326671, 87.03333616294469 -2.957217839429041, 93.66646100867537 -1.463119801543653 M66.33933437303152 -11.043688846767267 C75.83887569832133 -7.161919664073076, 84.32346095196095 -2.5958882843724247, 94.59514590546486 1.0855331239849328" stroke="#000000" stroke-width="4" fill="none"></path></g></g><g><g transform="translate(720.4353002833204 371.5146484375) rotate(0 47.636364233586846 0.20191152433699244)"><path d="M0.3413816604763269 0.43413285277783875 C15.9051093119507 0.6111855771392584, 78.01340175426253 1.1140220310539006, 93.9051639974117 1.0488494899123906 M-0.9385316971130669 -0.38355134485289466 C14.963786771216736 -0.5191781920008363, 80.14509424951547 -0.8175396144203844, 96.21126016428691 -0.52307927666232" stroke="#000000" stroke-width="4" fill="none"></path></g><g transform="translate(720.4353002833204 371.5146484375) rotate(0 47.636364233586846 0.20191152433699244)"><path d="M68.69307318403905 8.307968783038072 C79.42165313013297 7.728893629492491, 87.44831656035304 1.8368570901861103, 94.38963704196733 -0.09281676506623637 M67.04793933946227 10.05215721748244 C77.65105580549206 5.8391732620361445, 89.01685621241597 2.495522019772758, 96.93828996749592 -0.06744857469573629" stroke="#000000" stroke-width="4" fill="none"></path></g><g transform="translate(720.4353002833204 371.5146484375) rotate(0 47.636364233586846 0.20191152433699244)"><path d="M68.79570452812827 -12.21298317326868 C79.48672084253374 -5.741454564574969, 87.47812358031732 -4.583179312130908, 94.38963704196733 -0.09281676506623637 M67.15057068355149 -10.468794738824313 C77.62727771515887 -7.2924362041050825, 88.95612212863485 -3.246803278140602, 96.93828996749592 -0.06744857469573629" stroke="#000000" stroke-width="4" fill="none"></path></g></g><g transform="translate(280.8984375 289.958984375) rotate(269.4183495056339 81.66796875 79.869140625)"><path d="M0.24718101023237438 79.7156507749637 C0.24718101023237438 79.7156507749637, 0.24718101023237438 79.7156507749637, 0.24718101023237438 79.7156507749637 M0.24718101023237438 79.7156507749637 C0.24718101023237438 79.7156507749637, 0.24718101023237438 79.7156507749637, 0.24718101023237438 79.7156507749637 M3.3342265983855626 84.1529828808037 C13.762469452834688 73.17331389786807, 22.34630464883945 60.9449459154297, 33.05601434124326 44.944317295961035 M2.946352001633336 83.05832305408543 C8.722656178543332 74.80079642770387, 17.58997675380987 66.85095683442624, 34.991994518727715 46.6434646479785 M6.485110605521619 84.75453972745193 C26.88651479569563 63.99809299993635, 47.70496329433653 39.569487026133835, 71.85874033861633 11.985783804100649 M5.746463717347503 85.53060067466897 C29.40494205922209 58.50889248607894, 53.017040865777936 30.18769972345774, 70.83094830860223 11.436702993591027 M8.40926998802388 90.13174087646831 C38.73044156758767 56.65570298258165, 65.88879521355256 24.787792751887253, 85.5638386235031 -0.3969237206066154 M8.281290894792619 88.45293151027937 C35.33308100971364 56.15463677280558, 62.75333923423047 26.141989674293256, 85.02745836883958 1.9918034162809946 M10.669631991986101 92.3456825192591 C29.529303960098485 69.99129872241505, 49.086275645 46.94308764828018, 87.72160625185498 5.483912834903904 M11.443686317171817 90.72201355896348 C35.53643622665945 63.11361519961538, 61.153173066545584 33.881991690754575, 87.00764573000052 3.8955623982536878 M16.616233238502033 93.01410147223056 C30.340798264512586 75.09136465480209, 47.53735172228122 56.013020082769906, 88.7630086836138 8.680442628474111 M14.373573080188223 93.56559950626821 C33.589247576382576 72.5455385486836, 53.51952622761349 50.16140907034227, 90.38201076413628 7.5298715289916345 M15.667660694674929 98.12858475701171 C37.473564839288315 69.7205128168465, 63.172417930863936 43.480265064028295, 93.09629434785435 8.992389566064709 M17.833135563054462 97.76595630546319 C34.12059954976983 76.94753337560454, 52.282960504736664 55.90031420527097, 92.13579774993102 10.861111208596164 M20.872787789579533 99.09823127956324 C43.450419142326375 78.18889610057799, 63.87169654521884 52.30299365319369, 95.26114396167986 12.727746919304721 M19.862305544454657 100.10977685664975 C48.84975560360927 66.05158236825122, 76.47640362822236 32.877792126719086, 95.87689419159733 13.607095265336923 M21.911920240319105 103.3404093115142 C51.790830646673285 70.47102807968767, 75.73451788635529 36.60932402475028, 97.49040664618408 13.746439004600397 M23.87365802860144 102.38518748809754 C47.52443926674981 73.76483897105288, 71.64584086459311 45.718729522013795, 99.49131693483835 15.686982634760788 M26.65853216798738 103.32441816927081 C50.68737922972184 76.32125154309897, 77.64839525390131 48.108791076373414, 101.33548186847024 17.032240343580767 M26.307897361197924 105.83165963535345 C49.50646195827939 77.94393662919529, 71.90767323767916 50.34414561280761, 101.86234410886668 19.199446520137414 M28.804648039687613 108.14340737446211 C45.78602922980641 86.78309147676866, 66.38010574046126 65.12426314591553, 105.22805555761313 19.73643734220652 M29.352989171456734 109.1181790016871 C51.60778627239901 81.10734050004365, 74.0666888382354 55.03540269378641, 104.52600124236649 20.872586071568115 M33.42257878449457 112.55803833304881 C46.405096043256094 94.6289931259789, 63.72203014673167 74.67149043687722, 105.48124593071599 25.76858577210669 M30.599646488062014 110.79315723719984 C51.11643163859429 86.31269155200317, 71.76909993328731 63.556460455531415, 107.76595708955038 23.060933867322547 M33.96606761951147 111.58724181665991 C59.24257621637821 85.79309280773425, 83.10961568233641 55.747098474525764, 109.85133960887254 26.840172449687522 M35.13622556522636 114.28143942016129 C53.83429867259979 90.10827845602851, 74.12040877439746 66.6862444725648, 110.26900974612147 26.195367592947584 M37.8320261658321 117.55187964170169 C59.75105776828158 89.57299648515718, 83.74435818351515 63.481597437180106, 113.16317355918605 30.03653439657805 M37.20421199865293 116.33421573611837 C68.09393697388695 82.7168183289952, 97.4126792716057 47.487296177368364, 111.84421859129239 30.76127920171288 M37.98591639055968 119.64666382980315 C63.01766582741848 93.9084060745389, 84.83085184042352 66.63178710091435, 114.87187121073129 30.86052051873895 M38.917352667554326 119.00719063834069 C55.22418326464562 101.69814223311485, 70.36126199180109 84.24652909359412, 115.07839040374728 31.748486593719747 M42.523486722768965 120.98381828692499 C57.93273280311888 101.58493547243734, 71.62916120742939 85.24119984486438, 120.06398828061148 35.82324908779928 M41.91714185061467 122.11049452692959 C62.131631003057464 98.774189134779, 83.79652581367301 75.03138240245144, 117.43097518769875 35.64824109723786 M47.671917879563225 125.18383628469627 C66.82928646633752 100.01767575811014, 84.13747103879402 79.10375153722902, 121.01924888992039 39.48776942016528 M45.46771705204661 124.20569123015474 C65.84045232110617 103.75717354990226, 83.44316006319337 81.1459171815396, 120.88955228884993 38.90313914781407 M47.351558982036195 125.41914213952319 C74.1303968416262 100.03752171969067, 98.4046963833191 71.10761153830481, 124.83592750576125 40.04098103746595 M48.111345117553256 127.05568968356297 C78.0458700600771 92.68170810194383, 108.62081664060534 59.80127230871638, 124.68896233641343 41.88529144871803 M53.45736852628163 131.23130079281202 C80.7633826081113 99.34640605457534, 105.94102524187753 67.83028367396744, 126.99258505720883 44.33729534566202 M51.043613205337735 130.8482035102012 C70.967527686669 108.74621960506744, 88.41567316505791 87.87825023709553, 126.96679335907339 43.34623465005108 M54.14035535440275 133.3482273911918 C73.82631178215918 111.2587571288885, 89.57866761910962 92.46250132378529, 128.34921476136634 46.48939311638251 M54.48861975711265 132.41921060083905 C76.4821024933466 107.1726553422964, 101.7917996330659 80.26357168502659, 128.8582766110424 47.41393883008286 M57.369314770474354 134.72784896562322 C70.95042902117773 119.30698812433089, 87.54019866403782 102.03802222386398, 132.70897823932762 48.911886166033646 M56.35446061406217 136.70286479307785 C87.79762405458902 101.50847887278653, 117.0191730886821 66.13347288340123, 132.1517726880237 50.042719174360236 M61.93197436659967 139.1488619127353 C83.82828078961552 109.12263988128261, 111.0457365450826 79.84004148871537, 134.4435874581958 53.893236516244485 M61.328124842898895 138.72850335268726 C80.7232535714047 115.87987677950508, 102.39445727144223 91.2674650182423, 136.00790346922975 52.99140513615288 M64.99673013887244 142.25439367393432 C79.47965933992737 121.74301678314359, 97.14374781300292 100.5165021733984, 140.05504084704572 56.6394180729757 M63.53098085182594 141.07055865271417 C78.75158990775236 123.7185055920409, 92.29009114137332 106.70076768369572, 138.6150382333448 54.27325211556209 M67.73802842939591 145.12392189584924 C96.1587268694178 110.03364971435676, 123.2668873441049 80.11798173465694, 141.1767691229806 55.864674107856345 M66.23790833255595 144.82672733392818 C95.10654494025763 109.41051359166906, 124.99849891464376 75.87051508277885, 141.28418948458142 57.15294894085754 M66.89810204224486 145.31693610944083 C93.2287111723713 119.02227026335777, 116.69400147496206 94.25872849317801, 144.1353714070942 58.83517893729265 M68.53278437627304 147.06788198393068 C93.19523899105818 119.4178248049175, 117.87866360895264 89.50890347868632, 144.10449906864275 60.5965295475861 M69.78811606952252 149.46369521133806 C101.65484763867327 118.05503879783338, 127.23990021025372 87.59635907252243, 145.57599716648974 64.94095708291363 M72.40337929968985 150.83507861849125 C92.78759358364373 125.88989021117544, 113.46393737095207 101.74441499538536, 146.6623701147414 63.2495421390174 M73.8499040073226 152.3088891429472 C91.40577695270292 133.61233669462615, 108.27394181763285 113.92928833852315, 150.024082330242 66.73954495068003 M75.39684276100945 152.5894683606568 C98.44337633513105 123.52136240604915, 123.18989356724151 94.439978502813, 149.69695315156153 65.8869608652528 M76.93740872673894 153.52884847067455 C98.2432972043909 133.53238539202164, 117.62456541744487 110.64999426416986, 150.88649511545424 68.54674831222081 M76.99489473093504 154.43575702097425 C105.8171040583958 121.99033906763427, 135.85116340982958 90.20827559401691, 153.19504193331574 68.41019330456191 M81.59812344487473 156.54875396614904 C101.35535060179264 131.79875273096886, 125.20636832025644 103.9746893224042, 156.01327214322018 71.48030398394226 M79.98901646367922 159.34566467771316 C106.87857731782908 129.63172388255612, 133.33428457678787 98.63875185916365, 156.04655955570715 72.29699214249163 M84.63482784080472 161.58629828533145 C99.54529463655649 140.27829669311257, 115.1172175827614 124.17107180968972, 159.32300038064304 77.03179898747342 M84.13593661292609 161.60783735597494 C104.76794799665238 134.42463206831158, 128.1201579459564 109.1869706986987, 158.76369039794835 74.57962433231162 M118.90968533115756 126.50696443871213 C127.19732293880888 115.37834173503119, 137.56613874924392 105.55204660780853, 162.36455325679768 76.11033222877495 M119.05547850741368 126.08937549789054 C135.03745728863078 107.99118886330362, 150.27769510530652 90.6165438168999, 161.13636623872358 78.29478277412318" stroke="#fa5252" stroke-width="0.5" fill="none"></path><path d="M83.9333711322397 1.7579243425279856 C109.30245911142481 26.410546663216156, 133.06922937368358 52.92986504267792, 161.662290578708 79.38946231640875 M81.55833111423999 0.20121547859162092 C109.51675220036483 27.538813527901585, 135.41276578321262 54.883468736191205, 164.0383180500939 80.61153358500451 M162.0550580080598 78.6660445574671 C144.34972208996223 98.59591716718481, 125.97658749642542 116.5607242686145, 81.88688845001161 159.73065176047385 M162.9347955109551 80.47504681628197 C140.67853590969125 103.32610392969015, 117.02427143195702 126.511315838574, 81.09320060629398 159.6247476665303 M82.45764965377748 158.94471874274313 C62.49017753281197 139.28734253361844, 38.30221176628521 118.55603172434539, -0.6467324439436197 81.5781983975321 M81.52214114088565 159.0132929412648 C51.75388023249947 132.56635362408218, 23.035911531114508 103.09417838942448, -0.2596574304625392 80.07617414277047 M-0.1611610595136881 80.59449621476233 C17.546199919097127 64.06104625312611, 31.787374209612615 45.64594504533335, 83.37435514293611 1.4971046689897776 M0.45443172473460436 79.873784664087 C18.37742270976305 62.1608734693192, 37.545152354799214 43.61265033891425, 81.05619047302753 -0.6296764882281423" stroke="#000000" stroke-width="1" fill="none"></path></g><g transform="translate(890.1474609375 326.7822265625) rotate(0 37.880859375 37.880859375)"><path d="M7.08746965706395 16.761147324351104 C7.08746965706395 16.761147324351104, 7.08746965706395 16.761147324351104, 7.08746965706395 16.761147324351104 M7.08746965706395 16.761147324351104 C7.08746965706395 16.761147324351104, 7.08746965706395 16.761147324351104, 7.08746965706395 16.761147324351104 M4.782226441610391 25.066424376768317 C9.552997611783185 18.748370251689845, 18.942750122652708 9.593835292168652, 24.91246438487798 3.7593423975331213 M3.2461478777190393 27.018066777353432 C9.079696487999144 19.758320871673746, 14.460993488263785 15.862360213178826, 24.174840254666208 3.9049529451576497 M0.09170610721325545 35.039990885011626 C9.147468438384868 26.44547143525284, 16.793913209396575 19.160717427243746, 30.82438992540193 3.6962675065119974 M0.046130765072163626 37.07265039236821 C10.78710051883367 25.381316951462157, 19.769128149161006 13.438455253808293, 30.526587902743643 2.494831768268835 M-0.13450428047591245 40.05830906643674 C13.809456317013325 29.841908779127095, 23.90027147184214 14.943255056072413, 32.51783487437553 4.116753850521375 M1.6114499434325715 41.01465135286704 C11.334919317830156 32.187381809055005, 19.271014244408885 20.345949800941373, 33.598485063335666 4.182025145197143 M5.409977921006096 44.798501148474045 C13.426157228716264 31.936068407944603, 27.43543913631218 17.70612231325031, 38.71347876017656 4.802021809986702 M2.421003924404097 46.03471117338968 C18.265254098010455 28.430330728423524, 31.81987935198103 11.653333300164164, 41.00345369646068 2.182171180977395 M4.930971124075015 49.70125083244006 C21.63069470960379 31.922210415997856, 39.51050466504183 12.563659649798623, 47.001523678201764 1.017320300778934 M5.0337910520430995 48.92199377986203 C16.85377973894261 35.88249287098527, 28.023104730081304 22.54496863734759, 48.06085239165607 1.8736474535899248 M6.971993395137094 54.927141614428535 C16.08811311692037 42.49335988853385, 28.21409853006286 28.828564023936323, 49.96784011692384 2.977684255551246 M6.933423386896454 53.11427383048721 C21.020479097667938 36.54506948315721, 33.78564544911739 22.03336616881636, 50.32887219403514 2.35707849529728 M9.820703425598587 56.04886636553322 C16.666648817587767 45.256091163039336, 29.509376879028974 36.72010042973419, 55.72158850871108 6.445952599506285 M8.340817677011039 58.48389629596834 C19.058753577376486 46.111261083838265, 30.42343788449833 33.94975345104277, 53.53840815510682 6.147103768411483 M9.571400531865752 60.98872733184787 C26.871948101836104 40.65357187123672, 48.29142132349287 21.239045966836642, 57.42895185295074 9.481492793292265 M9.682945357933736 61.36902645950856 C23.019612438107913 47.429817489907094, 35.61851410481452 33.833904361955845, 57.53304195589899 8.014852208190124 M11.499642713325837 63.44671697402069 C24.699284015074547 52.47102862654077, 31.447978406920498 42.83917219064463, 60.06351765806805 10.887119993448476 M13.37370061069242 64.09548075636545 C27.306198103063128 47.9517685880482, 41.36735798040264 32.98857038519408, 60.425673848977496 10.528611383281866 M18.844451507394595 67.61156586836819 C31.06669896435363 46.64468747064148, 47.94467997450566 31.103267658216808, 63.71725017345028 11.108920410623124 M16.00235521684347 66.78152467496488 C27.414615929627473 54.586518714729735, 37.54606358279256 43.53029364157744, 64.31574489037024 13.047400853944293 M20.182930047497265 69.58882354642968 C39.227072528357766 47.7991355913501, 56.78441482270003 26.890686579829918, 67.07057718651319 14.456718371132744 M20.114426616452747 68.85970359645556 C34.38187324600439 53.129726990352324, 48.65231886102336 35.5242382655799, 68.1655737366336 13.035189233603312 M24.773058208021098 70.56481059385335 C35.87088948347392 58.7552807092853, 43.86445851293681 45.406515025934326, 70.11094905169148 19.28686673673938 M22.960723053048127 71.33454489359504 C39.33060217607146 54.89512878247447, 52.752191008189854 37.01785970448646, 68.92516567384291 18.337434608630343 M27.367720372391346 73.7817952921785 C43.833266309328266 57.35035171638387, 58.20611403989689 36.5633730064953, 71.44381092236294 20.902070262868477 M25.71762134169549 73.85148457253199 C39.949374230047276 57.285980473542544, 53.43478068418504 41.65342149913427, 72.24943484951659 23.174657896560205 M29.52567766499526 75.43781697705336 C44.10519613765814 58.30307414400039, 57.385237599064524 41.43894581533275, 72.45057148993381 25.28127182061379 M30.20428910092271 74.69044063102402 C46.613372171717806 58.84911131435233, 59.93100945988297 41.679004211982246, 73.06242301170148 25.96607906809603 M34.393772806229606 75.39773393934887 C45.984296089572936 64.53303438071482, 54.94588058806187 54.022660134796055, 74.66322104181984 32.50773323629184 M36.07113960776718 75.57061095955144 C46.70770991465031 64.34838647836159, 55.22444019455354 52.92047369383107, 74.33816756695398 31.85144798666371 M42.11337108351012 74.88543300538157 C50.89120091159523 65.62048716993128, 61.40137290564637 51.816346044946755, 76.45106757740828 36.68769697055082 M41.612522768785254 74.43643292154019 C49.95987243433991 66.92488700381004, 57.01712244202763 57.30343276891769, 76.19368769630196 34.70345608752082 M45.194978409252556 73.91191037646799 C52.53220076371784 65.8125132446957, 58.9379815617272 61.42833679933351, 73.21052846017186 43.94440108104389 M47.547593178033324 74.97941419291614 C55.31468045903918 64.91119767700489, 62.601838722554426 57.42984648202926, 73.48502600735877 44.215501340429896 M53.89285937885364 74.70335246847908 C59.96518887480014 66.60787504247834, 64.38808444189706 60.15252284732604, 69.20487002646932 51.50667803775095 M53.80117817504873 73.15996360165964 C59.546357604960065 65.97584023274942, 64.63973044869373 60.62981125325795, 70.05323814312378 53.0840370649802" stroke="#be4bdb" stroke-width="0.5" fill="none"></path><path d="M46.42921664424601 0.25097472506898555 C53.680253047552036 1.3980025608633782, 62.53008868570896 8.197005823232285, 67.40798942327885 13.947415925165881 C72.28589016084874 19.697826027099477, 75.44380344648589 27.338133605774566, 75.69662106966535 34.75343533667056 C75.94943869284482 42.16873706756656, 72.88014858645768 52.090646663622465, 68.92489516235564 58.43922631054186 C64.9696417382536 64.78780595746126, 58.85034400707625 70.3504373207338, 51.96510052505314 72.84491321818695 C45.079857043030024 75.33938911564009, 34.89251103283768 75.47718296269706, 27.613434270216956 73.40608169526075 C20.33435750759623 71.33498042782445, 12.908402463290805 66.13475944027086, 8.290639949328792 60.418305613569096 C3.6728774353667797 54.70185178686734, 0.06089148324522972 46.4370394107771, -0.09314081355511661 39.10735873505019 C-0.24717311035546294 31.777678059323275, 2.8617189378633308 22.70709849730585, 7.366446168526714 16.440221559207608 C11.871173399190099 10.173344621109365, 19.787220266054497 3.7515037670518416, 26.935222570425182 1.5060971064607287 C34.08322487479587 -0.7393095541303842, 45.601264665346314 2.4860197855351522, 50.25445999475082 2.967781595660931 C54.90765532415532 3.4495434057867094, 54.87464700917191 3.9201333719487734, 54.854394546852205 4.3966679672154 M27.442186541262075 -0.09763748432119002 C34.45087674265993 -2.7130097993696203, 45.42432318499227 -1.2492658415884352, 52.47829368172749 1.8483885600880754 C59.53226417846272 4.9460429617645865, 65.73181655191703 11.659543171583344, 69.76600952167342 18.488288925737873 C73.80020249142981 25.3170346798924, 77.14418999351925 35.54018137292705, 76.68345150026585 42.82086308501524 C76.22271300701244 50.10154479710343, 72.52611943520056 56.85342864587132, 67.00157856215304 62.172379198267016 C61.47703768910552 67.49132975066271, 51.20895244451596 73.20426274939203, 43.53620626198074 74.73456639938942 C35.86346007944552 76.26487004938681, 27.48438088763241 74.43844318679781, 20.965101466941714 71.35420109825137 C14.44582204625102 68.26995900970492, 8.056357386625304 62.9887942656405, 4.420529737836581 56.22911386811078 C0.7847020890478578 49.46943347058106, -1.8980881960175175 38.49933574881558, -0.8498644257906278 30.796118713073035 C0.1983593444362619 23.092901677330484, 5.666203814336723 14.99981379182331, 10.70987235919792 10.009811653655476 C15.753540904059118 5.019809515487641, 26.356034423895885 2.215053260401409, 29.412146843376554 0.8561058840660323 C32.468259262857224 -0.5028414922693447, 29.092764609251276 1.4356228875066617, 29.046546876081948 1.8561273956432132" stroke="#000000" stroke-width="1" fill="none"></path></g><g transform="translate(15.12109375 251.11328125) rotate(0 127 22.5)"><text x="0" y="32" font-family="Virgil" font-size="36px" fill="#000000" text-anchor="start" style="white-space: pre;">Implementation</text></g></svg>